Patient4_TMGait_0pt4_01_left_21_EMG.mot
version=1
nRows=16
nColumns=33
inDegrees=no
endheader
time	1LAddLong	2LGlutMax	3LGlutMed	4LIliopsoas	5LSemiMemb	6LBicFemLong	7LRecFem	8LVastMed	9LVastLat	10LGasMed	11LTibAnt	12lTibPost	13LPeroneusLong	14LSol	15LExtDigLong	16LFlexDigLong	17RAddLong	18RGlutMax	19RGlutMed	20RIliopsoas	21RSemiMemb	22RBicFemLong	23RRecFem	24RVastMed	25RVastLat	26RGasMed	27RTibAnt	28RTibPost	29RPeroneusLong	30RSol	31RExtDigLong	32RFlexDigLong
26.475	-0.001068	-0.1506	-0.049286	0.007172	0.011139	0.050201	-0.003204	0.003052	-0.047913	-0.045319	-0.044098	0.006866	-0.060425	-0.079956	-0.20447	0.00824	-0.014648	-0.09079	-0.11108	-0.004578	0.037994	0.031891	-0.25192	0.37613	0.099335	0.000458	-0.44357	-0.003204	-0.41107	0.06897	0.002441	-0.007935
26.476	-0.002136	-0.13138	-0.059204	0.002136	0.011902	0.03891	0.014038	0.012665	-0.043335	-0.092773	-0.18021	-0.003357	0.067444	-0.03418	-0.061188	0.020447	0.016022	-0.18524	-0.084076	0.001373	-0.006561	0.019226	0.20889	0.32227	-0.45746	-0.003052	-0.17639	-0.003357	-0.61478	0.14404	0.000458	0.001678
26.477	-0.009003	-0.098572	-0.054474	0.011292	0.014954	0.044556	-0.008392	0.00885	-0.030975	-0.075378	-0.018005	-0.002747	0.061646	-0.078735	0.085449	0.027771	0.042267	-0.18204	0.37277	0.029602	0.030212	-0.009308	0.4895	0.0737	-0.72357	-0.016785	0.25253	-0.008545	0.04837	0.10284	-0.000916	-0.002594
26.478	-0.01358	-0.10223	-0.040131	-0.011597	0.037689	0.12146	-0.004425	0.009918	-0.019226	-0.055084	0.004578	0.004883	0.012512	-0.10178	0.159	0.024719	0.0354	-0.18143	0.093231	-0.030212	-0.017242	0.002289	0.28366	-0.15961	-0.36911	-0.00885	0.21744	-0.004425	-0.14069	0.012054	0	-0.000458
26.479	-0.014191	-0.087128	-0.045624	0.004272	-0.00351	0.11871	-0.026855	0.012207	-0.013733	-0.049744	-0.018768	-0.00351	-0.010834	-0.091858	0.23468	0.018463	0.006714	-0.19592	-0.25192	0.002747	-0.067596	0.005493	-0.069885	-0.25116	-0.090485	-0.009003	-0.13489	-0.011902	-0.09079	0.15533	0.000305	-0.002747
26.48	-0.010834	-0.10208	-0.050812	0.015259	-0.075684	0.005188	-0.027924	0.007935	-0.000916	-0.027008	-0.043793	-0.002289	-0.030975	-0.094757	0.044098	0.013275	0.01297	-0.22949	-0.23361	0.027161	-0.001526	-0.010529	-0.075989	-0.29266	0.23025	-0.012054	-0.19104	-0.001221	0.062408	0.12573	0.000153	-0.011902
26.481	-0.000458	-0.1152	-0.050507	-0.000458	-0.097961	-0.10193	-0.059052	0.010223	-0.006714	-0.097656	0.038147	-0.004578	-0.028076	-0.097656	-0.1741	-0.003815	0.018158	-0.26932	0.091095	0.048523	0.029449	0.010834	0.076904	-0.25833	0.22614	-0.003357	-0.15106	-0.007935	0.11658	-0.035706	0.001068	-0.007019
26.482	0.00473	-0.11459	-0.05722	-0.004883	-0.11383	-0.17914	-0.075226	0.009918	0	-0.081482	-0.007019	-0.00351	-0.007782	-0.087433	-0.22614	-0.003662	0.009766	-0.1976	0.24979	0.059357	0.039215	0.047607	-0.079803	0.029144	0.23148	0	-0.011749	-0.006256	-0.16068	-0.094757	0.001068	-0.008698
26.483	0.007935	-0.11215	-0.088501	-0.013733	-0.02655	-0.15152	-0.081329	0.008392	-0.000916	-0.085144	-0.047302	-0.003815	-0.031891	-0.059509	-0.13657	0.002441	0.005341	-0.20203	0.44434	-0.002441	0.030518	0.035095	-0.072937	0.354	0.12512	-0.014191	0.063629	0.000153	-0.466	-0.13214	0.000305	-0.013123
26.484	0.010071	-0.12543	-0.066376	-0.021973	0.03006	-0.079651	-0.068054	0.010223	-0.004272	-0.065308	-0.016327	-0.006104	-0.041504	-0.055847	-0.059814	0.001526	0.010681	-0.19318	-0.33142	-0.063782	-0.000458	0.006561	-0.024719	0.30548	-0.030823	-0.007019	0.35339	-0.00824	-0.35202	-0.17746	-0.000763	-0.003967
26.485	-0.001068	-0.094604	-0.040131	-0.009003	0.016785	-0.075684	-0.093994	0.009003	-0.00351	-0.066376	0.11459	-0.002747	-0.00824	-0.088348	-0.052795	0.009613	-0.022583	-0.092926	-0.37857	-0.024872	-0.007629	-0.009155	-0.40619	0.16754	0.28229	0	0.55817	-0.003967	0.14847	-0.17212	0.001373	-0.010223
26.486	0.001526	-0.12283	-0.085297	0.012207	0.009003	-0.051575	-0.082245	0.003204	-0.001984	-0.067291	0.15945	-0.010529	0.015259	-0.16296	-0.082092	0.006409	-0.015564	-0.093689	-0.052032	0.095367	0.06546	0.010529	-0.29907	0.23865	0.18875	0.002441	0.61325	-0.001068	0.31021	-0.16907	-0.001373	-0.013123
26.487	-0.005951	-0.080109	-0.059814	-0.011444	0.039673	-0.001678	-0.077972	0.007019	-0.015717	-0.056458	0.099487	-0.003662	0.014496	-0.11429	-0.004883	0.002289	0.003967	-0.12039	0.13977	0.17212	0.043488	-0.017242	0.13184	0.063782	-0.29358	-0.007935	0.039978	-0.002899	0.28671	-0.02243	0.005798	-0.010376
26.488	-0.014191	-0.09491	-0.072479	0.008087	0.034485	0.041504	-0.089874	-0.001221	-0.013123	-0.077209	-0.2626	-0.001831	0.023804	-0.037231	0.26993	-0.000153	0.014954	-0.14038	1.0933	0.033875	0.027161	0.039978	0.25925	-0.06134	-0.47333	-0.010986	-0.2359	-0.005035	0.11002	0.072021	0.000763	-0.005341
26.489	-0.011749	-0.11932	-0.068207	-0.002136	0.005646	0.060272	-0.081787	0.009155	-0.003357	-0.052795	-0.042419	-0.014648	-0.036774	0.02121	0.15442	-0.002899	0.001526	-0.26489	1.3478	-0.057831	0.053711	0.08194	0.20157	-0.10559	-0.29617	-0.012512	-0.10391	-0.007935	-0.007629	0.1799	0.000916	-0.016785
26.49	-0.017548	-0.10834	-0.002899	0.00473	0.021057	0.061493	-0.091248	0.010681	-0.014038	-0.041351	0.058441	-0.008392	-0.030518	0.063782	0.15518	0.011902	0.001526	-0.32455	0.82901	-0.077667	0.037842	0.074005	0.031586	-0.31311	-0.078888	-0.009918	0.046539	-0.003815	-0.049286	0.03067	0.000763	-0.016937
